<?xml version="1.0" standalone="no"?>
<!DOCTYPE svg PUBLIC "-//W3C//DTD SVG 20010904//EN"
 "http://www.w3.org/TR/2001/REC-SVG-20010904/DTD/svg10.dtd">
<svg version="1.0" xmlns="http://www.w3.org/2000/svg"
 width="196.000000pt" height="184.000000pt" viewBox="0 0 196.000000 184.000000"
 preserveAspectRatio="xMidYMid meet">
<g transform="translate(0.000000,184.000000) scale(0.100000,-0.100000)"
fill="#000000" stroke="none">
<path d="M801 1725 c-264 -49 -478 -212 -592 -450 -58 -119 -79 -216 -79 -354
0 -233 78 -427 236 -585 60 -60 175 -141 208 -148 16 -2 27 19 72 142 48 131
51 146 36 155 -39 23 -149 144 -174 191 -100 186 -71 419 72 577 79 88 176
138 312 162 93 17 121 33 148 89 26 55 25 101 -3 150 -41 74 -111 95 -236 71z"/>
<path d="M1342 1628 c-7 -18 -32 -85 -54 -147 l-41 -115 29 -20 c120 -84 206
-222 225 -362 19 -135 -22 -284 -106 -384 -84 -101 -194 -161 -326 -180 -84
-12 -120 -29 -149 -70 -46 -65 -35 -156 25 -209 45 -39 91 -47 193 -32 319 46
577 278 663 597 28 103 32 308 7 399 -45 163 -115 285 -233 401 -57 57 -194
154 -216 154 -2 0 -10 -15 -17 -32z"/>
<path d="M1069 1372 c-63 -92 -171 -251 -242 -354 l-127 -188 110 0 c89 0 110
-3 110 -14 0 -8 -38 -126 -85 -262 -47 -136 -83 -249 -82 -251 4 -4 476 674
484 694 4 10 -21 13 -106 13 -61 0 -111 2 -111 4 0 2 39 120 86 261 47 141 84
258 82 260 -2 3 -56 -71 -119 -163z"/>
</g>
</svg>
